<svg width="0" height="0" class="hidden">
  <symbol xmlns="http://www.w3.org/2000/svg" viewBox="0 0 24 24" id="iconmonstr-email-10">
    <path d="M12 .02c-6.627 0-12 5.373-12 12s5.373 12 12 12 12-5.373 12-12-5.373-12-12-12zM18.99 7L12 12.666 5.009 7H18.99zM19 17H5V8.495l7 5.673 7-5.672V17z"></path>
  </symbol>
  <symbol xmlns="http://www.w3.org/2000/svg" viewBox="0 0 24 24" id="iconmonstr-github-1">
    <path d="M12 0C5.374 0 0 5.373 0 12c0 5.302 3.438 9.8 8.207 11.387.599.111.793-.261.793-.577v-2.234c-3.338.726-4.033-1.416-4.033-1.416-.546-1.387-1.333-1.756-1.333-1.756-1.089-.745.083-.729.083-.729 1.205.084 1.839 1.237 1.839 1.237 1.07 1.834 2.807 1.304 3.492.997.107-.775.418-1.305.762-1.604-2.665-.305-5.467-1.334-5.467-5.931 0-1.311.469-2.381 1.236-3.221-.124-.303-.535-1.524.117-3.176 0 0 1.008-.322 3.301 1.23A11.509 11.509 0 0 1 12 5.803c1.02.005 2.047.138 3.006.404 2.291-1.552 3.297-1.23 3.297-1.23.653 1.653.242 2.874.118 3.176.77.84 1.235 1.911 1.235 3.221 0 4.609-2.807 5.624-5.479 5.921.43.372.823 1.102.823 2.222v3.293c0 .319.192.694.801.576C20.566 21.797 24 17.3 24 12c0-6.627-5.373-12-12-12z"></path>
  </symbol>
  <symbol xmlns="http://www.w3.org/2000/svg" viewBox="0 0 24 24" id="iconmonstr-vk-4">
    <path d="M12 0C5.373 0 0 5.373 0 12s5.373 12 12 12 12-5.373 12-12S18.627 0 12 0zm6.344 16.163h-1.867c-1.055 0-1.232-.601-2.102-1.469-.785-.785-1.22-.183-1.202.935.006.297-.141.534-.495.534-1.105 0-2.694.156-4.304-1.58C6.727 12.804 5 9.235 5 8.884c0-.208.172-.301.459-.301h1.898c.503 0 .545.249.686.568.584 1.331 1.981 4.002 2.354 2.511.214-.856.301-2.839-.615-3.01-.52-.096.396-.652 1.722-.652.33 0 .688.035 1.054.12.673.156.676.458.666.898-.034 1.666-.235 2.786.204 3.069.419.271 1.521-1.502 2.104-2.871.159-.378.191-.632.643-.632h2.322c1.216 0-.159 1.748-1.21 3.112-.847 1.099-.802 1.12.183 2.034.701.651 1.53 1.54 1.53 2.043 0 .238-.186.39-.656.39z"></path>
  </symbol>
  <symbol xmlns="http://www.w3.org/2000/svg" viewBox="0 0 64 64" id="Orion_codepen">
    <title>Codepen</title>
    <path d="M33.9 2.762a4.734 4.734 0 0 0-5.29.094L5.042 19.439A4.608 4.608 0 0 0 3 23.281v17.9a4.736 4.736 0 0 0 2.134 3.935L29.17 61.227a4.754 4.754 0 0 0 5.2 0l24.5-16.3A4.736 4.736 0 0 0 61 40.989V23.374a4.736 4.736 0 0 0-2.134-3.935z"
      fill="none" stroke="#202020" stroke-linecap="round" stroke-miterlimit="10" stroke-width="2" stroke-linejoin="round"></path>
    <path fill="none" stroke="#202020" stroke-linecap="round" stroke-miterlimit="10" stroke-width="2" d="M52.184 22.156l-9.002 6.091-8.537-6.184V9.789l17.539 12.367zM28.52 9.882v11.993l-8.723 6.09-8.631-5.902L28.52 9.882zM8.754 27.965l5.568 3.842-5.568 3.935v-7.777zm19.859 25.579L11.166 41.739l8.724-6.184 8.723 5.902v12.087zm-3.341-21.831l5.661-4.029 6.589 4.404-5.847 3.935-6.403-4.31zm9.558 21.831V41.457l8.352-5.621 9.002 5.996L34.83 53.544zM54.69 35.93l-5.94-3.936 5.94-4.029v7.965z"
      stroke-linejoin="round"></path>
  </symbol>
</svg>